Notes
File was very nice to begin with. fixed aspect and framerate and added sharpness, brightness and denoise. looks sharp and in sync btw.

Plot
An Hawaiian land baron tries to re-connect with his two daughters after
his wife is seriously injured in a boating accident.

General Information
Format : AVI
Format/Info : Audio Video Interleave
File size : 1.42 GiB
Duration : 1h 54mn
Overall bit rate : 1 765 Kbps
Writing application : Nandub v1.0rc2
Writing library : Nandub build 1853/release

Video Information
ID : 0
Format : MPEG-4 Visual
Format profile : Advanced Simple@L5
Format settings, BVOP : 2
Format settings, QPel : Yes
Format settings, GMC : No warppoints
Format settings, Matrix : Default (H.263)
Muxing mode : Packed bitstream
Codec ID : XVID
Codec ID/Hint : XviD
Duration : 1h 54mn
Bit rate : 1 500 Kbps
Width : 720 pixels
Height : 304 pixels
Display aspect ratio : 2.35:1
Frame rate : 23.976 fps
Color space : YUV
Chroma subsampling : 4:2:0
Bit depth : 8 bits
Scan type : Progressive
Compression mode : Lossy
Bits/(Pixel*Frame) : 0.286
Stream size : 1.20 GiB (85%)
Writing library : XviD 1.2.1 (UTC 2008-12-04)

Audio Information
ID : 1
Format : AC-3
Format/Info : Audio Coding 3
Mode extension : CM (complete main)
Codec ID : 2000
Duration : 1h 54mn
Bit rate mode : Constant
Bit rate : 256 Kbps
Channel(s) : 2 channels
Channel positions : Front: L R
Sampling rate : 48.0 KHz
Bit depth : 16 bits
Compression mode : Lossy
Stream size : 210 MiB (15%)
Alignment : Split accross interleaves
Interleave, duration : 42 ms (1.00 video frame)
Interleave, preload duration : 500 ms